<?xml version="1.0" encoding="UTF-8" standalone="no"?>
<!-- Created with Inkscape (http://www.inkscape.org/) -->

<svg
   xmlns:dc="http://purl.org/dc/elements/1.1/"
   xmlns:cc="http://creativecommons.org/ns#"
   xmlns:rdf="http://www.w3.org/1999/02/22-rdf-syntax-ns#"
   xmlns:svg="http://www.w3.org/2000/svg"
   xmlns="http://www.w3.org/2000/svg"
   xmlns:sodipodi="http://sodipodi.sourceforge.net/DTD/sodipodi-0.dtd"
   xmlns:inkscape="http://www.inkscape.org/namespaces/inkscape"
   id="svg4685"
   version="1.1"
   inkscape:version="0.91 r13725"
   xml:space="preserve"
   width="110"
   height="40"
   viewBox="0 0 110 40"
   sodipodi:docname="elasticr-logo.svg"><metadata
     id="metadata4691"><rdf:RDF><cc:Work
         rdf:about=""><dc:format>image/svg+xml</dc:format><dc:type
           rdf:resource="http://purl.org/dc/dcmitype/StillImage" /><dc:title></dc:title></cc:Work></rdf:RDF></metadata><defs
     id="defs4689"><clipPath
       clipPathUnits="userSpaceOnUse"
       id="clipPath4699"><path
         d="M 0,300 690,300 690,0 0,0 0,300 Z"
         id="path4701"
         inkscape:connector-curvature="0" /></clipPath><linearGradient
       x1="0"
       y1="0"
       x2="1"
       y2="0"
       gradientUnits="userSpaceOnUse"
       gradientTransform="matrix(-34.194679,-30.996597,-30.996597,34.194679,159.56598,145.15761)"
       spreadMethod="pad"
       id="linearGradient4755"><stop
         style="stop-opacity:1;stop-color:#2785ba"
         offset="0"
         id="stop4757" /><stop
         style="stop-opacity:1;stop-color:#2785ba"
         offset="0.039801"
         id="stop4759" /><stop
         style="stop-opacity:1;stop-color:#2c9799"
         offset="0.74132265"
         id="stop4761" /><stop
         style="stop-opacity:1;stop-color:#2c9799"
         offset="0.850746"
         id="stop4763" /><stop
         style="stop-opacity:1;stop-color:#2c9799"
         offset="0.86468482"
         id="stop4765" /><stop
         style="stop-opacity:1;stop-color:#2c9799"
         offset="1"
         id="stop4767" /></linearGradient><radialGradient
       fx="0"
       fy="0"
       cx="0"
       cy="0"
       r="1"
       gradientUnits="userSpaceOnUse"
       gradientTransform="matrix(106.64892,0,0,-106.64892,122.39004,173.04961)"
       spreadMethod="pad"
       id="radialGradient4783"><stop
         style="stop-opacity:1;stop-color:#3eb8ac"
         offset="0"
         id="stop4785" /><stop
         style="stop-opacity:1;stop-color:#45cc94"
         offset="0.164179"
         id="stop4787" /><stop
         style="stop-opacity:1;stop-color:#c4e3e0"
         offset="0.7568646"
         id="stop4789" /><stop
         style="stop-opacity:1;stop-color:#c4e3e0"
         offset="0.850746"
         id="stop4791" /><stop
         style="stop-opacity:1;stop-color:#c4e3e0"
         offset="0.86468482"
         id="stop4793" /><stop
         style="stop-opacity:1;stop-color:#c4e3e0"
         offset="1"
         id="stop4795" /></radialGradient><radialGradient
       fx="0"
       fy="0"
       cx="0"
       cy="0"
       r="1"
       gradientUnits="userSpaceOnUse"
       gradientTransform="matrix(181.16396,0,0,-181.16396,93.873611,189.82397)"
       spreadMethod="pad"
       id="radialGradient4811"><stop
         style="stop-opacity:1;stop-color:#80e5bb"
         offset="0"
         id="stop4813" /><stop
         style="stop-opacity:1;stop-color:#40b4e5"
         offset="0.55402619"
         id="stop4815" /><stop
         style="stop-opacity:1;stop-color:#40b4e5"
         offset="0.850746"
         id="stop4817" /><stop
         style="stop-opacity:1;stop-color:#40b4e5"
         offset="0.86468482"
         id="stop4819" /><stop
         style="stop-opacity:1;stop-color:#40b4e5"
         offset="1"
         id="stop4821" /></radialGradient><clipPath
       clipPathUnits="userSpaceOnUse"
       id="clipPath4829"><path
         d="M 0,300 690,300 690,0 0,0 0,300 Z"
         id="path4831"
         inkscape:connector-curvature="0" /></clipPath><clipPath
       clipPathUnits="userSpaceOnUse"
       id="clipPath4837"><path
         d="m 96,194.588 51.324,0 0,-40.023 -51.324,0 0,40.023 z"
         id="path4839"
         inkscape:connector-curvature="0" /></clipPath><radialGradient
       fx="0"
       fy="0"
       cx="0"
       cy="0"
       r="1"
       gradientUnits="userSpaceOnUse"
       gradientTransform="matrix(83.625732,0,0,-83.625732,124.97182,192.69957)"
       spreadMethod="pad"
       id="radialGradient4845"><stop
         style="stop-opacity:1;stop-color:#80e5bb"
         offset="0"
         id="stop4847" /><stop
         style="stop-opacity:1;stop-color:#40b4e5"
         offset="0.55402619"
         id="stop4849" /><stop
         style="stop-opacity:1;stop-color:#40b4e5"
         offset="0.850746"
         id="stop4851" /><stop
         style="stop-opacity:1;stop-color:#40b4e5"
         offset="0.86468482"
         id="stop4853" /><stop
         style="stop-opacity:1;stop-color:#40b4e5"
         offset="1"
         id="stop4855" /></radialGradient><radialGradient
       fx="0"
       fy="0"
       cx="0"
       cy="0"
       r="1"
       gradientUnits="userSpaceOnUse"
       gradientTransform="matrix(139.54929,0,0,-139.54929,90.279114,120.33012)"
       spreadMethod="pad"
       id="radialGradient4883"><stop
         style="stop-opacity:1;stop-color:#80e5bb"
         offset="0"
         id="stop4885" /><stop
         style="stop-opacity:1;stop-color:#40b4e5"
         offset="0.55402619"
         id="stop4887" /><stop
         style="stop-opacity:1;stop-color:#40b4e5"
         offset="0.850746"
         id="stop4889" /><stop
         style="stop-opacity:1;stop-color:#40b4e5"
         offset="0.86468482"
         id="stop4891" /><stop
         style="stop-opacity:1;stop-color:#40b4e5"
         offset="1"
         id="stop4893" /></radialGradient><clipPath
       clipPathUnits="userSpaceOnUse"
       id="clipPath4901"><path
         d="M 0,300 690,300 690,0 0,0 0,300 Z"
         id="path4903"
         inkscape:connector-curvature="0" /></clipPath><clipPath
       clipPathUnits="userSpaceOnUse"
       id="clipPath4909"><path
         d="m 96,172.528 88.524,0 0,-91.7835 -88.524,0 0,91.7835 z"
         id="path4911"
         inkscape:connector-curvature="0" /></clipPath><clipPath
       clipPathUnits="userSpaceOnUse"
       id="clipPath4913"><path
         d="m 99.6444,141.552 78.6426,0 0,-31.271 -78.6426,0 0,31.271 z"
         id="path4915"
         inkscape:connector-curvature="0" /></clipPath><linearGradient
       x1="0"
       y1="0"
       x2="1"
       y2="0"
       gradientUnits="userSpaceOnUse"
       gradientTransform="matrix(-51.088013,-46.309971,-46.309971,51.088013,154.9024,141.03134)"
       spreadMethod="pad"
       id="linearGradient4921"><stop
         style="stop-opacity:1;stop-color:#2785ba"
         offset="0"
         id="stop4923" /><stop
         style="stop-opacity:1;stop-color:#2785ba"
         offset="0.039801"
         id="stop4925" /><stop
         style="stop-opacity:1;stop-color:#2c9799"
         offset="0.74132265"
         id="stop4927" /><stop
         style="stop-opacity:1;stop-color:#2c9799"
         offset="0.850746"
         id="stop4929" /><stop
         style="stop-opacity:1;stop-color:#2c9799"
         offset="0.86468482"
         id="stop4931" /><stop
         style="stop-opacity:1;stop-color:#2c9799"
         offset="1"
         id="stop4933" /></linearGradient><clipPath
       clipPathUnits="userSpaceOnUse"
       id="clipPath4935"><path
         d="m 133.643,172.528 50.881,0 0,-40.981 -50.881,0 0,40.981 z"
         id="path4937"
         inkscape:connector-curvature="0" /></clipPath><linearGradient
       x1="0"
       y1="0"
       x2="1"
       y2="0"
       gradientUnits="userSpaceOnUse"
       gradientTransform="matrix(-51.044243,-46.270294,-46.270294,51.044243,157.56032,138.05458)"
       spreadMethod="pad"
       id="linearGradient4943"><stop
         style="stop-opacity:1;stop-color:#2785ba"
         offset="0"
         id="stop4945" /><stop
         style="stop-opacity:1;stop-color:#2785ba"
         offset="0.039801"
         id="stop4947" /><stop
         style="stop-opacity:1;stop-color:#2c9799"
         offset="0.74132265"
         id="stop4949" /><stop
         style="stop-opacity:1;stop-color:#2c9799"
         offset="0.850746"
         id="stop4951" /><stop
         style="stop-opacity:1;stop-color:#2c9799"
         offset="0.86468482"
         id="stop4953" /><stop
         style="stop-opacity:1;stop-color:#2c9799"
         offset="1"
         id="stop4955" /></linearGradient><clipPath
       clipPathUnits="userSpaceOnUse"
       id="clipPath4957"><path
         d="m 96,120.877 49.88,0 0,-40.1325 -49.88,0 0,40.1325 z"
         id="path4959"
         inkscape:connector-curvature="0" /></clipPath><linearGradient
       x1="0"
       y1="0"
       x2="1"
       y2="0"
       gradientUnits="userSpaceOnUse"
       gradientTransform="matrix(-51.224918,-46.434074,-46.434074,51.224918,152.79752,143.25542)"
       spreadMethod="pad"
       id="linearGradient4965"><stop
         style="stop-opacity:1;stop-color:#2785ba"
         offset="0"
         id="stop4967" /><stop
         style="stop-opacity:1;stop-color:#2785ba"
         offset="0.039801"
         id="stop4969" /><stop
         style="stop-opacity:1;stop-color:#2c9799"
         offset="0.74132265"
         id="stop4971" /><stop
         style="stop-opacity:1;stop-color:#2c9799"
         offset="0.850746"
         id="stop4973" /><stop
         style="stop-opacity:1;stop-color:#2c9799"
         offset="0.86468482"
         id="stop4975" /><stop
         style="stop-opacity:1;stop-color:#2c9799"
         offset="1"
         id="stop4977" /></linearGradient></defs><sodipodi:namedview
     pagecolor="#ffffff"
     bordercolor="#666666"
     borderopacity="1"
     objecttolerance="10"
     gridtolerance="10"
     guidetolerance="10"
     inkscape:pageopacity="0"
     inkscape:pageshadow="2"
     inkscape:window-width="1920"
     inkscape:window-height="1017"
     id="namedview4687"
     showgrid="false"
     inkscape:zoom="4.7025675"
     inkscape:cx="110.1851"
     inkscape:cy="44.155262"
     inkscape:window-x="-8"
     inkscape:window-y="-8"
     inkscape:window-maximized="1"
     inkscape:current-layer="g4693" /><g
     id="g4693"
     inkscape:groupmode="layer"
     inkscape:label="elasticr-logo-horizontal (1)"
     transform="matrix(1.25,0,0,-1.25,0,40)"><g
       id="g4695"
       transform="matrix(0.17679929,0,0,0.17777821,-16.972732,-10.666771)"><g
         id="g4697"
         clip-path="url(#clipPath4699)"><g
           id="g4703"
           transform="translate(238.3347,147.4606)"><path
             d="m 0,0 c 0.48,13 8.311,20.755 20.566,20.755 13.043,0 19.118,-5.756 19.118,-18.068 C 39.684,1.828 39.645,1 39.572,0 L 0,0 Z m 20.413,29.654 c -18.678,0 -30.748,-12.496 -30.748,-31.835 0,-9.235 2.85,-17.136 8.241,-22.851 5.613,-5.95 13.634,-9.096 23.194,-9.096 8.689,0 16.573,2.212 22.798,6.396 0.437,0.295 0.732,0.758 0.813,1.279 0.081,0.52 -0.06,1.051 -0.387,1.464 l -2.815,3.546 c -0.575,0.723 -1.587,0.925 -2.394,0.478 -5.056,-2.797 -10.998,-4.276 -17.182,-4.276 -0.266,0 -0.531,0.373 -0.82,0.38 C 9.742,-24.766 2.078,-18 0.263,-7 l 46.763,0 c 0.909,0 1.689,0.277 1.857,1.171 0.442,2.362 0.706,5.092 0.706,7.613 0,9.024 -2.603,15.964 -7.739,20.809 -5.03,4.747 -12.243,7.061 -21.437,7.061"
             style="fill:#454c56;fill-opacity:1;fill-rule:nonzero;stroke:none"
             id="path4705"
             inkscape:connector-curvature="0" /></g><g
           id="g4707"
           transform="translate(323.8528,120.4606)"><path
             d="m 0,0 -0.007,0 -0.114,0 c -5.28,0 -9.44,1.77 -11.97,4.577 -2.546,2.857 -4.197,7.763 -4.197,13.725 l 0,51.617 c 0,1.034 -0.127,1.081 -1.17,1.081 l -6.543,0 c -1.043,0 -2.287,-0.066 -2.287,-1.1 l 0,-51.632 c 0,-8.736 2.508,-15.444 7.064,-19.939 4.211,-4.147 10.311,-6.251 17.935,-6.25 0.409,0 0.286,0.006 0.706,0.018 1.021,0.03 1.295,0.859 1.295,1.871 l 0,4.965 c 0,0.497 0.388,0.572 0.033,0.924 C 0.39,0.206 0.499,0 0,0"
             style="fill:#454c56;fill-opacity:1;fill-rule:nonzero;stroke:none"
             id="path4709"
             inkscape:connector-curvature="0" /></g><g
           id="g4711"
           transform="translate(351.0911,122.0664)"><path
             d="m 0,0 c -7.843,0 -15.49,3.757 -15.49,12.151 0,11.393 12.968,12.278 17.064,12.278 6.271,0 12.899,-1.611 16.899,-4.34 l 0,-11.693 C 14.473,2.824 7.904,0 0,0 m 20.442,49.325 c -4.917,3.633 -11.141,5.634 -18.15,5.634 -7.298,0 -15.188,-2.153 -21.944,-5.907 -0.85,-0.472 -1.116,-1.511 -0.729,-2.403 l 1.831,-4.12 c 0.213,-0.49 0.644,-0.867 1.149,-1.038 0.505,-0.17 1.07,-0.119 1.537,0.141 5.299,2.961 11.288,4.729 16.891,4.729 8.882,0 17.446,-4.925 17.446,-14.325 l 0,-3.323 c -5,2.442 -11.367,3.811 -17.813,3.811 -16.013,0 -26.097,-8.129 -26.097,-20.711 0,-14.151 12.664,-20.597 24.309,-20.597 5.911,0 14.079,1.382 21.133,7.453 l 0.149,-4.818 c 0.028,-1.022 0.898,-2.457 1.921,-2.457 l 5.883,0 c 1.044,0 0.515,2.087 0.515,3.13 l 0,37.392 c 0,7.175 -2.328,13.195 -8.031,17.409"
             style="fill:#454c56;fill-opacity:1;fill-rule:nonzero;stroke:none"
             id="path4713"
             inkscape:connector-curvature="0" /></g><g
           id="g4715"
           transform="translate(409.6892,150.5473)"><path
             d="m 0,0 c -8.504,1.609 -12.299,3.207 -12.299,8.421 0,6.227 9.06,8.084 16.592,8.097 0.576,0 3.793,-0.021 6.036,-0.379 2.243,-0.357 1.546,1.094 1.546,2.398 l 0,3.912 c 0,1.304 0.5,1.636 -1.546,2.148 -2.046,0.511 -6.433,0.472 -6.479,0.472 -12.651,0 -26.579,-4.531 -26.579,-16.787 0,-13.141 12.152,-15.258 21.825,-16.998 0.739,-0.14 1.517,-0.247 2.24,-0.379 9.468,-1.734 14.848,-3.024 14.848,-9.655 0,-6.913 -7.972,-9.369 -15.442,-9.369 -7.999,0 -16.357,2.662 -20.334,6.468 -0.426,0.407 -1.014,0.595 -1.596,0.503 -0.581,-0.091 -1.086,-0.448 -1.367,-0.965 l -2.254,-4.161 c -0.403,-0.745 -0.262,-1.667 0.346,-2.256 5.229,-5.069 15.183,-8.345 25.357,-8.345 12.698,0 25.51,5.552 25.51,17.955 0,14.211 -12.123,16.371 -23.847,18.46 C 1.708,-0.309 0.851,-0.156 0,0"
             style="fill:#454c56;fill-opacity:1;fill-rule:nonzero;stroke:none"
             id="path4717"
             inkscape:connector-curvature="0" /></g><g
           id="g4719"
           transform="translate(468.2038,122.8327)"><path
             d="m 0,0 c -5.23,0.559 -9.595,2.344 -12.285,5.301 -2.658,2.929 -4.354,7.002 -4.354,12.103 l 0,26.224 16.427,0 c 1.044,0 1.573,1.074 1.573,2.117 l 0,5.047 c 0,1.043 -0.529,0.836 -1.573,0.836 l -16.427,0 0,15.814 c 0,1.043 0.179,1.186 -0.864,1.186 l -6.543,0 c -1.043,0 -2.593,-0.143 -2.593,-1.186 l 0,-15.814 -8.944,0 c -1.043,0 -2.056,0.207 -2.056,-0.836 l 0,-5.047 c 0,-1.043 1.013,-2.117 2.056,-2.117 l 8.944,0 0,-26.224 c 0,-8.004 2.76,-14.376 7.503,-18.932 4.465,-4.335 10.964,-6.786 18.969,-7.284 0.039,-0.002 0.166,-0.004 0.205,-0.004 0.479,0 0.659,0.183 1.01,0.513 0.38,0.357 0.313,0.855 0.313,1.376 l 0,5.049 C 1.361,-0.913 0.96,-0.103 0,0"
             style="fill:#454c56;fill-opacity:1;fill-rule:nonzero;stroke:none"
             id="path4721"
             inkscape:connector-curvature="0" /></g><g
           id="g4723"
           transform="translate(475.5645,115.7846)"><path
             d="m 0,0 c 0,-1.043 1.282,-2.324 2.325,-2.324 l 7.023,0 C 10.391,-2.324 11,-1.043 11,0 L 11,43.314 0,35.69 0,0 Z"
             style="fill:#454c56;fill-opacity:1;fill-rule:nonzero;stroke:none"
             id="path4725"
             inkscape:connector-curvature="0" /></g><g
           id="g4727"
           transform="translate(486.5645,173.2068)"><path
             d="m 0,0 c 0,1.043 -0.609,1.254 -1.652,1.254 l -7.023,0 C -9.718,1.254 -11,1.043 -11,0 L -11,-11.948 0,-4.324 0,0 Z"
             style="fill:#454c56;fill-opacity:1;fill-rule:nonzero;stroke:none"
             id="path4729"
             inkscape:connector-curvature="0" /></g><g
           id="g4731"
           transform="translate(498.2911,124.8724)"><path
             d="m 0,0 c -0.023,0 -0.046,0 -0.069,-0.001 -3.188,-0.032 -5.583,-2.312 -5.583,-5.328 0,-3.085 2.429,-5.412 5.651,-5.412 3.222,0 5.651,2.327 5.651,5.412 C 5.65,-2.291 3.221,0 0,0"
             style="fill:#e56153;fill-opacity:1;fill-rule:nonzero;stroke:none"
             id="path4733"
             inkscape:connector-curvature="0" /></g><g
           id="g4735"
           transform="translate(552.6408,124.973)"><path
             d="m 0,0 c -0.625,0.736 -1.705,0.882 -2.503,0.339 -3.064,-2.087 -8.065,-3.021 -11.662,-3.021 -13.272,0 -21.847,8.956 -21.847,22.816 0,13.86 8.575,22.816 21.846,22.816 5.519,0 9.329,-1.395 11.054,-2.7 0.797,-0.603 1.926,-0.48 2.575,0.279 l 3.592,4.202 c 0.343,0.4 0.503,0.926 0.441,1.449 -0.062,0.524 -0.34,0.998 -0.767,1.307 -3.943,2.86 -10.405,4.568 -17.285,4.568 -9.609,0 -17.723,-3.231 -23.466,-9.345 -5.36,-5.706 -8.312,-13.724 -8.312,-22.576 0,-8.984 3.026,-17.07 8.522,-22.77 5.752,-5.966 13.793,-9.119 23.256,-9.119 6.48,0 13.446,1.866 17.745,4.754 0.446,0.3 0.744,0.776 0.817,1.309 C 4.08,-5.159 3.923,-4.62 3.575,-4.21 L 0,0 Z"
             style="fill:#454c56;fill-opacity:1;fill-rule:nonzero;stroke:none"
             id="path4737"
             inkscape:connector-curvature="0" /></g><g
           id="g4739"
           transform="translate(592.2804,176.989)"><path
             d="M 0,0 -0.511,0.01 C -7.77,-0.028 -14.586,-3.087 -20.05,-8.521 l -0.065,4.68 c -0.028,1.023 -0.793,1.313 -1.816,1.313 l -5.884,0 c -1.043,0 -1.901,0.205 -1.901,-0.838 l 0,-57.034 c 0,-1.043 0.858,-3.128 1.901,-3.128 l 6.543,0 c 1.043,0 2.556,2.085 2.556,3.128 l 0,40.81 c 3,6.748 10.727,10.264 17.994,10.264 l 1.263,-0.202 0.014,0 c 0.498,0 0.397,0.388 0.751,0.74 0.357,0.354 -0.022,1.028 -0.022,1.531 l 0,5.368 C 1.284,-0.855 1.033,-0.014 0,0"
             style="fill:#454c56;fill-opacity:1;fill-rule:nonzero;stroke:none"
             id="path4741"
             inkscape:connector-curvature="0" /></g></g></g><g
       id="g4743"
       transform="matrix(0.17679929,0,0,0.17777821,-16.972732,-10.666771)"><g
         id="g4745"><g
           id="g4751"><g
             id="g4753"><path
               d="m 98.826,120.569 34.188,-19.17 47.846,32.59 3.595,38.421 -85.629,-51.841 z"
               style="fill:url(#linearGradient4755);stroke:none"
               id="path4769"
               inkscape:connector-curvature="0" /></g></g></g></g><g
       id="g4771"
       transform="matrix(0.17679929,0,0,0.17777821,-16.972732,-10.666771)"><g
         id="g4773"><g
           id="g4779"><g
             id="g4781"><path
               d="M 169.847,238.864 100.22,196.411 c -4.519,-2.755 -4.456,-7.117 0.141,-9.741 l 0,0 27.78,-15.857 37.626,22.239 c 6.836,4.041 12.378,13.754 12.378,21.694 l 0,0 0,19.33 c 0,3.754 -1.868,5.924 -4.588,5.924 l 0,0 c -1.117,0 -2.377,-0.365 -3.71,-1.136"
               style="fill:url(#radialGradient4783);stroke:none"
               id="path4797"
               inkscape:connector-curvature="0" /></g></g></g></g><g
       id="g4799"
       transform="matrix(0.17679929,0,0,0.17777821,-16.972732,-10.666771)"><g
         id="g4801"><g
           id="g4807"><g
             id="g4809"><path
               d="m 96.749,190.862 0,-25.401 c 0,-7.94 6.233,-15.987 13.921,-17.972 l 0,0 60.023,-15.497 c 7.689,-1.985 13.922,2.843 13.922,10.784 l 0,0 0,29.714 -83.232,21.943 c -0.396,0.105 -0.781,0.155 -1.148,0.155 l 0,0 c -2.004,0 -3.486,-1.489 -3.486,-3.726"
               style="fill:url(#radialGradient4811);stroke:none"
               id="path4823"
               inkscape:connector-curvature="0" /></g></g></g></g><g
       id="g4825"
       transform="matrix(0.17679929,0,0,0.17777821,-16.972732,-10.666771)"><g
         id="g4827"
         clip-path="url(#clipPath4829)"><g
           id="g4833"><g
             id="g4835" /><g
             id="g4857"><g
               clip-path="url(#clipPath4837)"
               id="g4859"
               style="opacity:0.130005"><g
                 id="g4861"><g
                   id="g4863"><g
                     id="g4865"><g
                       id="g4867"><path
                         d="m 96,190.862 0,-25.401 c 0,-3.84 1.835,-7.704 4.211,-10.896 l 47.113,27.708 -46.409,12.16 C 98.356,195.108 96,193.509 96,190.862"
                         style="fill:url(#radialGradient4845);stroke:none"
                         id="path4869"
                         inkscape:connector-curvature="0" /></g></g></g></g></g></g></g></g></g><g
       id="g4871"
       transform="matrix(0.17679929,0,0,0.17777821,-16.972732,-10.666771)"><g
         id="g4873"><g
           id="g4879"><g
             id="g4881"><path
               d="m 96.749,117.055 0,-20.608 c 0,-10.588 8.367,-21.088 18.687,-23.452 l 0,0 55.164,-12.637 c 7.74,-1.774 14.015,3.226 14.015,11.167 l 0,0 0,24.922 c 0,2.647 -2.089,5.282 -4.666,5.887 l 0,0 -78.533,18.419 c -0.359,0.084 -0.708,0.125 -1.044,0.125 l 0,0 c -2.075,0 -3.623,-1.545 -3.623,-3.823"
               style="fill:url(#radialGradient4883);stroke:none"
               id="path4895"
               inkscape:connector-curvature="0" /></g></g></g></g><g
       id="g4897"
       transform="matrix(0.17679929,0,0,0.17777821,-16.972732,-10.666771)"><g
         id="g4899"
         clip-path="url(#clipPath4901)"><g
           id="g4905"><g
             id="g4907" /><g
             id="g4979"><g
               clip-path="url(#clipPath4909)"
               id="g4981"
               style="opacity:0.52000397"><g
                 id="g4983"><g
                   id="g4985" /><g
                   id="g4987"><g
                     clip-path="url(#clipPath4913)"
                     id="g4989"
                     style="opacity:0.19999701"><g
                       id="g4991"><g
                         id="g4993"><g
                           id="g4995"><g
                             id="g4997"><path
                               d="m 101.415,120.753 44.652,-10.472 32.22,22.08 c -2.184,-0.907 -4.791,-1.093 -7.593,-0.369 l -37.028,9.56 -34.022,-20.743 c 0.547,0.103 1.144,0.091 1.771,-0.056"
                               style="fill:url(#linearGradient4921);stroke:none"
                               id="path4999"
                               inkscape:connector-curvature="0" /></g></g></g></g></g></g></g><g
                 id="g5001"><g
                   id="g5003" /><g
                   id="g5005"><g
                     clip-path="url(#clipPath4935)"
                     id="g5007"
                     style="opacity:0.19999701"><g
                       id="g5009"><g
                         id="g5011"><g
                           id="g5013"><g
                             id="g5015"><path
                               d="m 178.287,132.361 3.288,2.285 c 1.874,1.965 2.95,4.767 2.95,8.13 l 0,29.715 -0.099,0.037 -50.783,-30.976 37.039,-9.56 c 2.803,-0.724 5.421,-0.538 7.605,0.369"
                               style="fill:url(#linearGradient4943);stroke:none"
                               id="path5017"
                               inkscape:connector-curvature="0" /></g></g></g></g></g></g></g><g
                 id="g5019"><g
                   id="g5021" /><g
                   id="g5023"><g
                     clip-path="url(#clipPath4957)"
                     id="g5025"
                     style="opacity:0.19999701"><g
                       id="g5027"><g
                         id="g5029"><g
                           id="g5031"><g
                             id="g5033"><path
                               d="m 101.415,120.753 c -0.627,0.147 -1.224,0.159 -1.771,0.056 L 97.15,119.517 C 96.661,118.874 96,118.033 96,117.055 l 0,-20.608 c 0,-5.673 2.778,-11.318 6.594,-15.702 l 43.286,29.536 -44.465,10.472 z"
                               style="fill:url(#linearGradient4965);stroke:none"
                               id="path5035"
                               inkscape:connector-curvature="0" /></g></g></g></g></g></g></g></g></g></g></g></g></g></svg>