<?xml version="1.0" encoding="utf-8"?>
<!-- Generator: Adobe Illustrator 22.1.0, SVG Export Plug-In . SVG Version: 6.00 Build 0)  -->
<svg version="1.1" id="Layer_1" xmlns="http://www.w3.org/2000/svg" xmlns:xlink="http://www.w3.org/1999/xlink" x="0px" y="0px"
	 viewBox="0 0 999.8 296.6" style="enable-background:new 0 0 999.8 296.6;" xml:space="preserve">
<style type="text/css">
	.st0{fill:#A8ABAD;}
	.st1{fill-rule:evenodd;clip-rule:evenodd;fill:#EBECEB;}
	.st2{fill-rule:evenodd;clip-rule:evenodd;fill:#EC1C24;stroke:#FFFFFF;stroke-width:3.1599;stroke-miterlimit:10;}
	.st3{fill-rule:evenodd;clip-rule:evenodd;fill:#FFFFFF;}
	.st4{fill-rule:evenodd;clip-rule:evenodd;fill:#EC1C24;}
</style>
<g>
	<g>
		<path class="st0" d="M676.4,165.9v-45.1h-9.8v-9.2h9.8v-19h10.5v19h22.3v9.2h-22.3v43.7c0,8.6,4.8,11.7,11.8,11.7
			c3.5,0,6.5-0.7,10.2-2.4v9c-3.7,1.9-7.6,3-12.6,3C684.9,185.7,676.4,180.1,676.4,165.9z"/>
		<path class="st0" d="M720,112.5h10.5v18.3c5.2-11.7,15.4-20.1,28.7-19.6v11.3h-0.8c-15.4,0-27.9,11-27.9,32.2v30.7H720V112.5z"/>
		<path class="st0" d="M762.3,163.7v-0.3c0-14.8,12.2-22.7,30-22.7c9,0,15.4,1.2,21.6,3v-2.4c0-12.6-7.7-19.2-20.9-19.2
			c-8.3,0-14.8,2.2-21.3,5.2l-3.1-8.6c7.7-3.5,15.4-5.8,25.5-5.8c9.9,0,17.5,2.6,22.7,7.7c4.8,4.8,7.2,11.5,7.2,20.5v44.3h-10.1
			v-11.9c-4.9,6.4-13,12.1-25.4,12.1C775.5,185.5,762.3,178.1,762.3,163.7z M814,158.2v-6.8c-5.2-1.5-12.1-3-20.7-3
			c-13.2,0-20.5,5.7-20.5,14.5v0.3c0,8.8,8.1,14,17.7,14C803.5,177.3,814,169.4,814,158.2z"/>
		<path class="st0" d="M827.3,111.3h12.1l24.8,61.1l24.9-61.1h11.8l-32,74.2h-9.7L827.3,111.3z"/>
		<path class="st0" d="M901,149.1v-0.3c0-20.2,14.3-36.5,33.7-36.5c20.8,0,32.7,16.6,32.7,37.1c0,1.4,0,2.2-0.1,3.4h-55.7
			c1.5,15.2,12.2,23.8,24.7,23.8c9.6,0,16.4-3.9,22.1-9.9l6.5,5.8c-7.1,7.9-15.6,13.2-28.9,13.2C916.7,185.7,901,170.9,901,149.1z
			 M956.8,145.1c-1.1-12.8-8.4-23.9-22.4-23.9c-12.2,0-21.5,10.2-22.8,23.9H956.8z"/>
		<path class="st0" d="M979.1,92.6h10.5v92.8h-10.5V92.6z"/>
	</g>
	<g>
		<g>
			<path class="st1" d="M114.3,227.2c-17,0-30.8-13.2-31-29.6l-52.3,2c-16.1,0.6-24.8,5.3-19.5,10.5l48.7,47.1
				c5.6,5.4,23.4,9.2,39.8,8.5l19-0.8l67.5,14.4l31.7-18.7l18.7-0.8c16-0.7,24.2-5.6,18.3-10.9l-20.1-18.1l-48.7,47l-52.4-50.6
				H114.3z"/>
			<path class="st2" d="M112,17.4c-17.4,0-31.5,13.6-31.5,30.4v149.4c0,16.8,14.1,30.4,31.5,30.4h20.3l53.2,51.4l53.2-51.4H259
				c17.4,0,31.5-13.6,31.5-30.4V47.8c0-16.8-14.1-30.4-31.5-30.4H112z"/>
		</g>
		<path class="st3" d="M182.5,168.3c-8.7,0-14.7-4.2-14.7-11.4v-0.4c0-8.4,7.1-13,18.6-13c6.5,0,12.5,1.4,17.1,3.5v4.7
			C203.6,161.5,195.1,168.3,182.5,168.3z M174.4,185.8c13.1,0,22.1-4.5,28.6-11.3v11.3h25.2v-54.8c0-12.2-3.1-22.2-9.9-29
			c-6.5-6.5-16.9-10.2-31.5-10.2c-16.1,0-26.1,2.9-36.2,7.3l6.5,19.7c8.4-3.1,15.6-4.9,25.8-4.9c13.4,0,20.3,6,20.3,16.7v1.5
			c-6.7-2.2-13.6-3.7-23.1-3.7c-22.1,0-37.4,9-37.4,28.7v0.3C142.7,176.1,156.9,185.8,174.4,185.8z"/>
	</g>
	<g>
		<path class="st4" d="M375.7,172.2c-7,0-11.9-3.5-11.9-9.4v-0.3c0-6.9,5.7-10.7,15.1-10.7c5.3,0,10.2,1.2,13.9,2.9v3.9
			C392.8,166.6,385.9,172.2,375.7,172.2z M369.1,185.7c10.6,0,17.9-3.5,23.3-8.7v8.7h20.7v-43.8c0-9.5-2.5-17.3-8.2-22.8
			c-5.4-5.2-13.8-8.1-25.7-8.1c-13.1,0-21.3,2.3-29.6,5.8l5.3,15.6c6.9-2.4,12.7-3.8,21.1-3.8c10.9,0,16.5,4.6,16.5,12.9v1.2
			c-5.5-1.7-11.1-2.9-18.8-2.9c-18.1,0-30.6,7.2-30.6,23.7v0.3C343.2,178.3,354.8,185.7,369.1,185.7z"/>
		<path class="st4" d="M447.3,138V111h21.3c10.5,0,16.9,4.6,16.9,13.4v0.3c0,7.9-6,13.3-16.4,13.3H447.3z M426.4,185.6h20.9v-29.4
			h16.9l20.9,29.4h24.3l-23.1-32.9c11.9-4.4,20.1-13.9,20.1-29.1v-0.3c0-8.8-2.8-16.2-8.1-21.4c-6.2-6.1-15.5-9.4-27.9-9.4h-44
			V185.6z"/>
		<path class="st4" d="M533.2,142c1.7-9.1,7.3-15.1,16.1-15.1c9.9,0,15.5,6.1,16.8,15.1H533.2z M551.3,185.5
			c13.5,0,23.5-5.1,30.4-13.3l-12.1-10.8c-5.8,5.6-11,7.9-18,7.9c-9.4,0-16.1-5.2-18.2-15.1h53.1c0.1-1.8,0.3-3.6,0.3-5.1
			c0-19.9-11.5-38.4-36.6-38.4c-21.9,0-37.2,16.8-37.2,36.8v0.3C512.5,170.5,529,185.5,551.3,185.5z"/>
		<path class="st4" d="M620.2,185.7c16.2,0,28.8-7.4,28.8-23.6v-0.3c0-13.3-12.2-18.1-22.8-21.5c-8.1-2.7-15.2-4.6-15.2-8.7v-0.3
			c0-2.8,2.7-5,7.8-5c5.4,0,12.9,2.6,20.3,6.8l8.2-14.3c-8.2-5.3-18.5-8.5-28-8.5c-15.1,0-27.5,8.3-27.5,23.1v0.3
			c0,14.1,11.9,18.8,22.5,21.8c8.2,2.4,15.5,3.9,15.5,8.4v0.3c0,3.3-2.8,5.4-8.9,5.4c-7,0-15.5-3-23.7-8.7l-9.1,13.6
			C597.9,182.3,609.7,185.7,620.2,185.7z"/>
	</g>
</g>
</svg>
