<?xml version="1.0" encoding="UTF-8" standalone="no"?>
<!-- Generator: Adobe Illustrator 19.2.1, SVG Export Plug-In . SVG Version: 6.00 Build 0)  -->

<svg
   version="1.1"
   id="layer"
   x="0px"
   y="0px"
   viewBox="0 0 600.04529 132.64299"
   xml:space="preserve"
   sodipodi:docname="curve.svg"
   width="600.04529"
   height="132.64299"
   inkscape:version="1.2.2 (b0a8486541, 2022-12-01)"
   xmlns:inkscape="http://www.inkscape.org/namespaces/inkscape"
   xmlns:sodipodi="http://sodipodi.sourceforge.net/DTD/sodipodi-0.dtd"
   xmlns="http://www.w3.org/2000/svg"
   xmlns:svg="http://www.w3.org/2000/svg"><defs
   id="defs7" /><sodipodi:namedview
   id="namedview5"
   pagecolor="#ffffff"
   bordercolor="#000000"
   borderopacity="0.25"
   inkscape:showpageshadow="2"
   inkscape:pageopacity="0.0"
   inkscape:pagecheckerboard="0"
   inkscape:deskcolor="#d1d1d1"
   showgrid="false"
   inkscape:zoom="1.291411"
   inkscape:cx="304.31829"
   inkscape:cy="72.401425"
   inkscape:window-width="1854"
   inkscape:window-height="1011"
   inkscape:window-x="66"
   inkscape:window-y="32"
   inkscape:window-maximized="1"
   inkscape:current-layer="layer" />
<path
   d="m 563.94529,41.614804 v 15 h 28.3 v 19.3 h -28.3 v 15 h 36.1 V 110.7148 h -56.7 V 21.714804 h 56.7 v 19.8 h -36.1 z m -79.9,24.7 -20.2,-44.5 h -22.9 l 43.1,89.999996 43.1,-89.999996 h -22.9 z m -71.6,6.8 29.8,37.699996 h -24.6 l -28.3,-36.099996 h -0.2 V 110.8148 h -20.6 V 21.814804 h 34.5 c 6.4,0 12.5,2.2 17.4,6.2 4.9,3.9 8.2,9.4 9.3,15.6 1.1,6.1 0,12.4 -3.1,17.8 -3.3,5.4 -8.3,9.5 -14.2,11.7 z m -2.3,-24.1 c 0,-1.2 -0.2,-2.4 -0.7,-3.5 -1,-2.3 -2.8,-4 -5.1,-4.8 -1.2,-0.4 -2.4,-0.6 -3.6,-0.6 h -11.6 v 17.7 h 11.6 c 2.5,0.1 4.9,-0.8 6.7,-2.4 0.9,-0.8 1.6,-1.8 2.1,-2.9 0.3,-1.1 0.6,-2.3 0.6,-3.5 z m -87.6,26 c 0,10.8 -6.8,17.5 -16.9,17.5 -10.1,0 -16.8,-6.8 -16.8,-17.5 v -53.1 h -20.6 v 52.9 c 0,22.3 15.6,37.099996 37.5,37.099996 21.9,0 37.5,-14.799996 37.5,-37.099996 v -52.9 h -20.6 z m -222.999999,24.7 c -0.3,0.1 -0.6,0.299996 -0.8,0.599996 -0.2,0.2 -0.4,0.5 -0.4,0.8 -0.1,0.3 -0.1,0.6 0,0.9 0.1,0.3 0.3,0.6 0.5,0.8 0.9,1.3 2.499999,3.6 4.699999,6.9 2.3,3.3 4.1,5.7 5.3,7.4 0.5,0.9 1.2,0.9 2.1,0.2 3.2,-2.7 6.3,-5.6 9.1,-8.7 7.9,-9.399996 13.1,-20.799996 15,-32.999996 0.1,-0.1 -0.1,0 -0.8,0.4 -16.7,11.3 -28.3,19.3 -34.699999,23.7 z m 31.099999,-59 c -0.2,-0.1 -0.7,0.1 -1.4,0.6 l -23.6,16 c -7.599999,5.2 -15.299999,10.4 -22.999999,15.6 -1.1,0.7 -2,1.6 -2.5,2.8 -0.2,0.7 0.2,1.8 1.2,3.3 l 9.5,13.1 c 0.9,1.3 1.6,1.9 2.1,2 0.5,0.1 1.4,-0.2 2.7,-1.1 4.1,-3 8.399999,-5.8 12.599999,-8.6 3.9,-2.5 7.7,-5.1 11.5,-7.7 4.9,-3.2 9.7,-6.5 14.5,-9.8 1.1,-0.6 1.9,-1.7 1.9,-3 -0.3,-7.5 -1.9,-15 -4.5,-22 -0.5,-0.7 -0.8,-1.1 -1,-1.2 z m -68.999999,9.2 c 0,1.1 0.4,2.1 1.1,3 l 9.6,13.7 c 0.7,1.1 1.3,1.7 1.8,1.7 0.9,-0.1 1.7,-0.4 2.4,-1 2.4,-1.6 10.5,-7.1 24.299999,-16.5 12.2,-8.3 20.2,-13.6 24,-16.3 1.3,-0.7 1.9,-1.3 2,-1.7 0.1,-0.4 -0.3,-1.1 -1.1,-2.2 -3.3,-4.8 -7.2,-9.3 -11.6,-13.2 -1.3,-1.3 -2.1,-1.9 -2.6,-1.9 -1.1,0.3 -2.1,0.8 -2.9,1.5 -0.1,0 -0.2,0 -0.2,0 -0.1,0.1 -0.1,0.1 -0.2,0.2 -0.1,0.1 -0.3,0.1 -0.4,0.2 0.1,0 -0.1,0 0,0 -14.699999,10 -29.499999,20 -44.299999,30 -0.9,0.6 -1.6,1.5 -1.9,2.5 z m 35,65.099996 c -2.1,-2.9 -3.4,-4.8 -4.1,-5.8 -1,-1.3 -1.8,-2.1 -2.3,-2.2 -1.1,0 -2.1,0.2 -3,0.7 -9.7,4 -20.3,4.9 -30.5,2.4 -9.7,-2.1 -18.4,-7.3 -24.8,-14.799996 -9.9,-11.8 -13.1,-24.9 -9.7,-39.1 4.4,-18.7 15.8,-30.1 34.2,-34.3 8.3,-1.8 17,-1.4 25.1,1.4 0.8,0.3 1.6,0.4 2.5,0.3 0.8,-0.1 1.6,-0.5 2.3,-1 0.5,-0.4 3.3,-2.2 8.2,-5.6 4.8,-3.2 7.599999,-5.1 8.299999,-5.7 0.8,-0.6 1.2,-1 1.3,-1.1 0,-0.3000001 -0.4,-0.6000001 -1.3,-1.1000001 -13.099999,-7.7 -28.499999,-10.6 -43.499999,-8.40000003 -15.1,1.90000003 -29.1,8.80000003 -39.8,19.70000013 -8.9,8.8 -15.1000002,19.9 -17.9000002,32.1 -2.8,12.1 -1.99999995,24.8 2.2,36.5 4.3,11.799996 11.9000002,22.099996 22.0000002,29.699996 10.5,8.2 23.3,13 36.6,13.7 13.4,1.1 26.7,-1.8 38.499999,-8.2 0.3,-0.1 0.5,-0.2 0.7,-0.4 0.2,-0.2 0.3,-0.4 0.3,-0.7 0.1,-0.5 0,-1 -0.4,-1.4 -1.2,-1.5 -2.799999,-3.8 -4.899999,-6.7 z M 166.04529,66.014804 c -0.1,25.1 19.5,46.499996 50.8,46.699996 14.8,0.1 24.6,-4.9 34.2,-12.4 l -11.3,-16.099996 c -6.2,5.7 -14.4,8.8 -22.8,8.7 -16.9,-0.1 -27.4,-11.9 -27.4,-26.6 0.1,-14.8 10.7,-26.4 27.6,-26.4 8.4,-0.1 16.5,3.1 22.7,8.9 l 11.4,-16 c -9.5,-7.6 -19.2,-12.7 -34,-12.8 -31.3,-0.3 -51.1,21 -51.2,46 z m 0,0"
   id="path2" />
</svg>
