<?xml version="1.0" standalone="no"?>
<!DOCTYPE svg PUBLIC "-//W3C//DTD SVG 20010904//EN"
 "http://www.w3.org/TR/2001/REC-SVG-20010904/DTD/svg10.dtd">
<svg version="1.0" xmlns="http://www.w3.org/2000/svg"
 width="1403.000000pt" height="1403.000000pt" viewBox="0 0 1403.000000 1403.000000"
 preserveAspectRatio="xMidYMid meet">
<metadata>
Created by potrace 1.11, written by Peter Selinger 2001-2013
</metadata>
<g transform="translate(0.000000,1403.000000) scale(0.100000,-0.100000)"
fill="#000000" stroke="none">
<path d="M6985 13959 c-16 -10 -37 -22 -45 -26 -8 -4 -35 -19 -60 -33 -25 -15
-117 -68 -205 -117 -88 -50 -261 -148 -385 -218 -124 -71 -245 -139 -270 -153
-25 -14 -87 -49 -138 -78 -52 -30 -96 -54 -98 -54 -3 0 -30 -16 -60 -35 -30
-19 -56 -35 -58 -35 -3 0 -43 -22 -91 -50 -48 -27 -89 -50 -91 -50 -2 0 -21
-11 -42 -24 -33 -21 -148 -86 -477 -271 -130 -74 -163 -92 -258 -146 -40 -23
-92 -53 -117 -67 -107 -60 -306 -173 -320 -182 -50 -31 -129 -69 -132 -62 -2
4 -4 264 -3 579 l1 571 -342 0 c-188 0 -364 3 -393 7 l-51 7 -20 -47 c-11 -26
-33 -64 -48 -84 -16 -20 -34 -55 -40 -78 -10 -33 -21 -47 -57 -68 -25 -14 -45
-34 -46 -43 -1 -9 -2 -41 -3 -71 -1 -49 -4 -56 -31 -71 -16 -9 -38 -33 -47
-53 -10 -20 -32 -50 -49 -68 -27 -27 -30 -37 -26 -73 7 -55 -11 -73 -84 -87
-83 -16 -108 -42 -107 -110 1 -56 -17 -105 -55 -146 -28 -31 -50 -29 -92 8
-32 28 -39 31 -68 23 -40 -12 -69 -64 -60 -109 9 -48 11 -988 1 -1007 -4 -9
-20 -23 -35 -30 -16 -8 -95 -53 -178 -100 -82 -47 -170 -96 -195 -110 -25 -14
-61 -34 -80 -45 -32 -19 -427 -243 -530 -301 -25 -14 -196 -111 -380 -215
-184 -104 -355 -201 -380 -215 -25 -14 -137 -78 -250 -142 -113 -64 -232 -132
-265 -150 -110 -60 -145 -82 -145 -89 0 -4 16 -33 35 -65 19 -32 35 -60 35
-61 0 -3 150 -268 155 -273 1 -2 53 27 115 63 62 36 116 65 119 65 4 0 13 6
19 12 7 7 16 13 20 13 4 0 18 8 32 16 31 20 317 182 387 220 l53 29 0 -473 c1
-259 3 -1534 6 -2832 3 -1298 6 -3349 7 -4557 l2 -2198 5855 0 5856 0 -4 5021
c-3 4170 -1 5020 10 5015 7 -3 21 -9 31 -12 9 -4 17 -10 17 -15 0 -5 7 -9 15
-9 8 0 15 -4 15 -8 0 -4 16 -14 35 -21 19 -7 35 -16 35 -20 0 -4 16 -13 35
-20 19 -7 33 -17 30 -22 -4 -5 3 -9 14 -9 12 0 21 -5 21 -12 0 -6 3 -9 6 -6 3
4 22 -5 41 -18 20 -13 42 -24 50 -24 8 0 11 -4 8 -10 -3 -5 3 -10 14 -10 12 0
21 -4 21 -9 0 -5 8 -11 18 -14 18 -6 74 -38 82 -48 3 -3 20 -12 38 -20 17 -8
32 -17 32 -21 0 -5 6 -8 13 -8 7 0 23 -9 35 -20 12 -12 22 -18 22 -15 0 3 18
-6 40 -20 22 -14 44 -25 50 -25 5 0 10 -4 10 -10 0 -5 7 -10 15 -10 8 0 15 -4
15 -9 0 -5 11 -12 24 -15 14 -3 31 -12 38 -19 46 -42 54 -39 96 26 21 34 45
73 52 87 7 14 16 27 19 30 4 3 12 16 19 30 26 51 44 81 77 131 18 28 31 57 28
65 -3 8 -9 12 -13 9 -4 -3 -13 2 -20 10 -7 8 -17 15 -23 15 -5 0 -25 11 -42
25 -18 13 -35 21 -39 18 -3 -4 -6 -2 -6 4 0 6 -8 13 -17 16 -10 3 -40 20 -68
36 -27 17 -57 34 -65 38 -8 3 -17 9 -20 12 -7 9 -41 29 -70 43 -14 7 -44 25
-67 41 -24 15 -43 24 -43 20 0 -4 -6 -1 -13 7 -11 13 -57 41 -124 74 -13 6
-23 14 -23 19 0 4 -7 7 -15 7 -8 0 -15 4 -15 8 0 5 -16 14 -35 22 -19 8 -35
17 -35 20 0 3 -16 12 -35 20 -19 8 -35 17 -35 21 0 4 -8 9 -17 12 -18 6 -73
37 -83 47 -10 10 -65 41 -82 47 -10 3 -18 9 -18 14 0 5 -9 9 -20 9 -11 0 -20
4 -20 8 0 5 -15 16 -32 25 -18 9 -55 30 -83 47 -27 17 -57 33 -65 37 -8 4 -17
9 -20 12 -3 3 -25 17 -50 30 -25 14 -47 27 -50 30 -8 10 -62 40 -102 59 -21 9
-38 20 -38 24 0 5 -5 8 -11 8 -6 0 -31 14 -56 30 -24 17 -48 30 -54 30 -5 0
-9 5 -9 10 0 6 -9 10 -20 10 -11 0 -20 5 -20 10 0 6 -7 10 -15 10 -8 0 -15 3
-15 8 0 4 -23 18 -50 31 -28 14 -50 29 -50 34 0 4 -4 6 -9 3 -5 -3 -14 1 -21
9 -7 8 -19 15 -26 15 -8 0 -14 5 -14 10 0 6 -7 10 -15 10 -8 0 -15 5 -15 12 0
6 -3 8 -6 5 -7 -7 -64 23 -64 34 0 4 -11 10 -24 13 -14 3 -31 12 -38 19 -15
13 -44 30 -103 61 -22 12 -42 24 -45 27 -3 4 -23 16 -45 28 -22 12 -58 33 -80
47 -22 14 -48 27 -57 31 -10 3 -18 9 -18 13 0 4 -8 10 -17 13 -10 4 -40 20
-68 37 -27 17 -58 33 -67 37 -10 3 -18 9 -18 14 0 5 -4 9 -9 9 -16 0 -151 83
-151 93 0 6 -3 7 -7 4 -3 -4 -17 0 -29 8 -22 14 -45 27 -142 82 -23 13 -58 35
-78 48 -19 13 -48 30 -64 37 -17 7 -30 16 -30 20 0 5 -4 8 -10 8 -13 0 -114
62 -118 72 -2 4 -12 8 -23 8 -10 0 -19 5 -19 10 0 6 -4 10 -10 10 -5 0 -40 19
-77 42 -38 22 -84 50 -103 61 -37 21 -40 22 -172 102 -46 27 -92 54 -103 61
-99 55 -127 72 -172 101 -29 18 -55 33 -58 33 -3 0 -42 23 -86 50 -44 28 -85
50 -90 50 -5 0 -9 4 -9 8 0 4 -12 13 -27 19 -16 7 -35 17 -43 23 -40 27 -221
130 -230 130 -6 0 -10 4 -10 8 0 5 -15 16 -32 25 -18 9 -51 27 -73 40 -45 27
-209 124 -240 141 -11 7 -57 34 -103 61 -131 79 -135 81 -172 102 -32 19 -123
73 -195 116 -16 9 -38 20 -47 23 -10 4 -18 10 -18 15 0 5 -4 9 -9 9 -10 0
-264 147 -313 181 -15 11 -29 19 -31 19 -3 0 -57 32 -121 70 -65 39 -118 70
-120 70 -2 0 -62 36 -135 80 -73 44 -136 80 -140 80 -4 0 -12 5 -19 12 -7 7
-37 26 -67 43 -51 28 -254 148 -354 208 -25 15 -66 38 -91 52 -25 14 -63 37
-85 51 -22 14 -48 27 -57 31 -10 3 -18 9 -18 14 0 13 -11 10 -45 -12z"/>
</g>
</svg>
