<svg id="Vrstva_1" data-name="Vrstva 1" xmlns="http://www.w3.org/2000/svg" viewBox="0 0 1024 469.91"><defs><style>.cls-1{fill:#1d71b8;}.cls-2{fill:#f39200;}.cls-3{fill:#009640;}</style></defs><path class="cls-1" d="M451.34,387.57a70.61,70.61,0,0,1-28.89-26.15q-10.33-16.73-10.33-37.91t10.33-37.78a70.07,70.07,0,0,1,28.89-25.88q18.56-9.29,42.09-9.28,24.06,0,41.57,10.32a57.23,57.23,0,0,1,24.84,28.63l-38.43,19.61q-9.67-19.08-28.24-19.08-13.34,0-22.09,8.89t-8.76,24.57q0,16,8.76,25t22.09,9q18.56,0,28.24-19.08L559.84,358A57.11,57.11,0,0,1,535,386.65Q517.48,397,493.43,397,469.9,397,451.34,387.57Z"/><path class="cls-1" d="M723.77,387.57a71,71,0,0,1-28.63-26.15q-10.33-16.73-10.33-37.91a69.83,69.83,0,0,1,38.83-63.66q18.17-9.29,41.17-9.28t41.31,9.28a69.56,69.56,0,0,1,28.5,25.88q10.2,16.61,10.2,37.78t-10.2,37.91a70.1,70.1,0,0,1-28.5,26.15q-18.3,9.4-41.31,9.41Q742.07,397,723.77,387.57Zm62.48-39.09q8.37-9,8.37-25,0-15.69-8.37-24.57t-21.44-8.89q-13.06,0-21.43,8.89T735,323.51q0,16,8.37,25t21.43,9Q777.89,357.5,786.25,348.48Z"/><path class="cls-1" d="M678.8,388.88a50.09,50.09,0,0,1-15.3,6A85.11,85.11,0,0,1,644.29,397q-27.72,0-42.62-13.59c-9.94-9.07-17-22.18-17-40.13V249.14H564V212h20.65V62.66l51.81-19.27V212.17h32.42v36.57H636.44v93.6q0,7.59,4,11.89t10.85,4.32a26.28,26.28,0,0,0,15.17-4.45Z"/><path class="cls-1" d="M934.89,255.4q12.15-4.83,27.84-4.83v44.71a100,100,0,0,0-11.24-.79q-15.94,0-25,8.63t-9,26.41V463.58H867.82V252.92h47.33v17A46.29,46.29,0,0,1,934.89,255.4Z"/><path class="cls-2" d="M61.27,192c415,0,556.05-87.36,671.67-141L946.19,201.54V156.62L733.28,5.15a1006.88,1006.88,0,0,1-96.84,51.63V13.4H584.63V78.79S399.86,179.26,61.27,192Z"/><path class="cls-3" d="M283.75,387.57q18.83,9.4,43.66,9.41,39.73,0,60.39-23l-26.14-27.19a52,52,0,0,1-15,9.41A49,49,0,0,1,329,359.07q-13.61,0-22.62-5.88a28.9,28.9,0,0,1-12.16-16.87h103Q398,324.56,398,324q0-22.76-10.07-39.35a66.58,66.58,0,0,0-27.32-25.36q-17.25-8.76-38.43-8.76-22.23,0-40,9.41a70.3,70.3,0,0,0-27.85,26q-10.07,16.61-10.06,37.52,0,21.18,10.32,37.91T283.75,387.57Zm19.47-95.17q7.71-6.52,19.22-6.54t19.22,6.54q7.71,6.54,9.8,17.78h-58Q295.51,298.95,303.22,292.4Z"/><path class="cls-3" d="M254.22,426.16l-63-89.05q17.26-8.37,26.54-23.14T227,279.33q0-20.65-9.93-35.95t-28.24-23.53q-18.3-8.23-43.14-8.24H62v183H113.8V346H142l83.23,117.58H917.5V426.16Zm-87.6-127.09Q158.51,306,142.56,306H113.8V252.4h28.76q15.94,0,24.06,7.06t8.1,19.87Q174.72,292.14,166.62,299.07Z"/></svg>